<svg width="92" height="91" viewBox="0 0 92 91" fill="none" xmlns="http://www.w3.org/2000/svg">
<g clip-path="url(#clip0_20_13)">
<path d="M27.753 29.6267C28.2169 29.7015 28.644 29.9251 28.9698 30.2637C29.2957 30.6023 29.5027 31.0376 29.5597 31.504C29.8885 34.1875 30.4082 39.6994 29.7577 44.0128C28.9586 49.3373 27.1838 53.1415 26.1762 54.9765C25.7307 55.7896 24.815 56.2174 23.9028 56.0619C21.6578 55.6836 17.3621 54.3577 13.968 49.7969C9.1349 43.3163 12.8861 34.1062 18.444 31.2636C24.0018 28.4211 27.753 29.6267 27.753 29.6267Z" fill="#FFC107"/>
<path d="M25.6813 53.3572C25.4409 53.9441 24.5818 53.8345 24.4898 53.2122C24.2282 51.395 24.0338 48.1812 24.5676 43.2067C25.1475 37.8114 26.4132 34.8416 27.2688 33.3849C27.5658 32.8829 28.3224 33.0243 28.4178 33.6006C28.7325 35.478 29.0896 39.1231 28.3188 43.7335C27.5728 48.2059 26.4379 51.4975 25.6813 53.3572Z" fill="url(#paint0_radial_20_13)"/>
<path d="M15.407 37.2634C16.2697 37.8008 17.3975 37.1609 18.1081 36.1603C18.8789 35.0785 19.9148 33.7809 18.8647 32.9501C17.7793 32.0909 16.2697 33.6784 15.7287 34.283C14.9403 35.1704 14.6433 36.7897 15.407 37.2634Z" fill="#FFEE58"/>
<path d="M31.8473 17.2735C34.9373 11.9066 42.6024 7.15483 51.1725 13.2359C54.4287 15.5447 55.7864 19.1155 56.3273 21.205C56.596 22.2374 56.1965 23.3299 55.3091 23.9203C53.5767 25.0729 50.08 26.9503 44.2322 28.3009C40.9831 29.0539 35.8283 29.3438 32.8549 29.4534C31.5114 29.5029 30.3588 28.4847 30.2669 27.1412C30.0866 24.5143 30.1325 20.254 31.8473 17.2735Z" fill="#FFC107"/>
<path d="M34.6579 27.7422C34.2124 27.7422 34.0498 27.1553 34.4352 26.9255C36.1252 25.9144 39.3779 24.182 42.9735 23.3511C46.6646 22.5026 51.1194 22.3682 53.4387 22.3612C53.8948 22.3576 54.0503 22.9657 53.6473 23.1849C51.8123 24.1926 48.2803 25.8861 43.9528 26.7275C39.5546 27.5831 36.3656 27.7387 34.6579 27.7422Z" fill="url(#paint1_radial_20_13)"/>
<path d="M34.4847 20.3777C33.5266 22.2127 32.1477 21.6187 32.1442 20.1232C32.1406 19.0448 33.4417 15.8134 35.8176 14.2577C37.3874 13.2324 39.6643 14.6961 37.8116 16.4992C36.5495 17.7261 35.6585 18.1291 34.4847 20.3777Z" fill="#FFEE58"/>
<path d="M82.0872 49.2913C74.9171 50.9247 66.5768 48.4817 59.7744 42.7541C53.6297 37.5781 49.2704 30.4752 45.7702 24.7689L49.0618 23.535C52.4135 28.9938 56.6985 34.9335 62.3483 39.6923C68.1925 44.6173 75.2424 46.7457 81.1962 45.3881L82.0872 49.2913ZM63.6317 65.7952L59.8876 64.3845C60.6442 62.3763 59.6295 59.7636 57.7168 58.7984C56.7834 58.3246 55.6166 58.1478 54.3863 57.9569C53.3822 57.8014 52.3392 57.6422 51.2892 57.3134C48.5456 56.4508 46.1662 54.5168 44.7696 52.0031C44.0661 50.7338 43.6418 49.4115 43.2352 48.1281C42.7756 46.6786 42.3407 45.3174 41.5558 44.2921C40.8275 43.3446 39.7421 42.6551 38.5718 42.4041C37.5147 42.1814 36.3197 42.2733 35.0575 42.3758C34.0994 42.4501 33.1059 42.5314 32.0771 42.4854C29.6411 42.3758 27.6718 41.3116 25.9853 39.611L27.2086 36.8957C27.2086 36.8957 29.4891 38.462 30.7371 38.7484C32.0452 39.0453 33.3428 38.8367 34.6651 38.7307C36.1606 38.614 37.7799 38.1473 39.4098 38.4973C41.4957 38.9428 43.4367 40.1696 44.7378 41.8667C45.947 43.4435 46.5091 45.2149 47.0536 46.926C47.4177 48.068 47.7607 49.1464 48.2733 50.0691C49.1784 51.6955 50.7164 52.9506 52.4948 53.5057C53.2584 53.7461 54.1034 53.8769 55.005 54.0148C56.4935 54.2446 58.0279 54.4779 59.5305 55.2381C63.2711 57.119 65.1166 61.8637 63.6317 65.7952Z" fill="#03A9F4"/>
<path d="M48.0576 85.626L44.1048 85.0179C46.9722 66.4387 36.6095 53.7921 29.991 48.6868L31.4724 45.8972C38.7909 51.5399 51.2396 65.0209 48.0576 85.626Z" fill="#F48FB1"/>
<path d="M60.2411 38.1226L60.5734 38.0801C59.389 36.9382 58.2753 35.7113 57.2252 34.4421C55.4893 34.6012 53.7604 34.6401 52.1341 34.2865C52.0881 34.2759 52.0457 34.2618 51.9997 34.2512C53.0816 35.7149 54.2342 37.1644 55.4752 38.5468C57.1298 38.5115 58.742 38.3135 60.2411 38.1226Z" fill="#0076C6"/>
<path d="M75.0902 38.8226L71.332 40.1979C70.5789 38.1367 68.3303 36.9841 66.4812 36.5917C64.077 36.0826 61.4254 36.4149 58.8586 36.7402C56.1044 37.0902 52.9861 37.4862 49.8925 36.8109C44.2073 35.5734 40.29 30.8712 39.5334 25.1012L42.7366 24.1961C43.2846 28.3503 46.6504 32.0061 50.741 32.9006C53.1593 33.4309 55.7968 33.0915 58.353 32.7698C61.1143 32.4197 64.2397 32.0238 67.3085 32.6743C71.0102 33.4627 73.9942 35.8174 75.0902 38.8226ZM36.659 75.3022C33.1305 72.8344 33.7704 69.0903 34.1134 67.0786C34.1558 66.8382 34.2053 66.5412 34.2301 66.3255C33.9684 66.0851 33.4841 65.9401 32.632 65.7245C31.2284 65.3674 29.3051 64.8724 28.3151 62.7864C27.456 60.9727 28.4 59.1448 28.803 57.7094C29.146 56.4826 29.1778 55.376 28.5626 54.1951C27.8449 52.8198 24.9846 50.4191 24.9846 50.4191L25.7024 47.6862C25.7024 47.6862 28.7606 49.6555 30.0405 50.9353C33.6679 54.5628 32.5825 57.5008 32.2113 58.8266C31.9532 59.7424 31.7092 60.6086 31.9284 61.0682C32.0875 61.4041 32.4906 61.5596 33.629 61.8495C34.9937 62.196 36.864 62.6804 37.9141 64.6355C38.4267 65.5866 38.25 66.6402 38.059 67.7503C37.7232 69.7196 37.603 71.0843 38.9535 72.0248L36.659 75.3022ZM56.3625 48.2943C54.8033 49.2524 53.1947 49.362 51.7875 49.4964L51.4092 45.5118C51.4092 45.5118 53.0002 45.823 54.8422 44.8578L56.3625 48.2943ZM38.1757 34.6471L34.8594 35.5098L33.979 31.603L37.2989 30.7368L38.1757 34.6471ZM70.5824 56.2068L66.0145 57.2745L65.7706 52.6819L70.0097 52.5723L70.5824 56.2068Z" fill="#F44336"/>
<path d="M60.6275 28.4066L59.9946 24.4574L64.2358 23.7771L64.8683 27.7267L60.6275 28.4066Z" fill="#FB8C00"/>
<path d="M39.6183 47.2195L35.3969 47.9902L34.9726 44.9709L39.1905 44.2037L39.6183 47.2195Z" fill="#F44336"/>
<path d="M45.6535 47.216C45.6535 47.216 46.1167 46.7175 46.8309 46.2366C46.4137 44.9568 45.9399 43.6628 45.1585 42.4571C44.257 43.0264 43.7479 43.6981 43.7479 43.6981L45.6535 47.216Z" fill="#0076C6"/>
<path d="M49.3411 44.1931C47.5132 44.338 45.9258 46.0457 45.9258 46.0457L44.0166 42.5314C44.0166 42.5314 45.5864 40.4525 48.1001 40.5055L49.3411 44.1931ZM37.1439 78.8622L39.5526 76.1395L42.5483 78.7908L40.1392 81.5124L37.1439 78.8622ZM50.2709 64.7451L46.3288 64.0628C46.541 62.8324 46.5975 61.5667 46.495 60.3187L50.4831 59.9934C50.6109 61.58 50.5396 63.1763 50.2709 64.7451Z" fill="#FB8C00"/>
<path d="M56.8258 71.2576C55.2772 71.4061 53.7287 71.6536 52.2155 71.993L51.3386 68.0898C53.011 67.7115 54.7257 67.4392 56.4404 67.273L56.8258 71.2576Z" fill="#F44336"/>
<path d="M60.1209 43.0016C61.3901 44.0729 62.3695 44.7764 63.7271 45.6108L64.0948 42.2521L60.0148 41.7995L60.1209 43.0016Z" fill="#0076C6"/>
<path d="M58.9274 47.8043L59.4927 42.6703L63.4681 43.108L62.9031 48.2423L58.9274 47.8043Z" fill="#FFC107"/>
<path d="M72.1204 62.942C70.7168 62.5284 69.2743 62.196 67.8318 61.9556L68.4894 58.01C70.0981 58.2775 71.6886 58.6447 73.2517 59.1095L72.1204 62.942Z" fill="#FB8C00"/>
</g>
<defs>
<radialGradient id="paint0_radial_20_13" cx="0" cy="0" r="1" gradientUnits="userSpaceOnUse" gradientTransform="translate(26.4584 43.4131) rotate(-45) scale(7.551 7.551)">
<stop offset="0.376" stop-color="#AF5700"/>
<stop offset="1" stop-color="#8F4700"/>
</radialGradient>
<radialGradient id="paint1_radial_20_13" cx="0" cy="0" r="1" gradientUnits="userSpaceOnUse" gradientTransform="translate(44.0451 25.0513) rotate(-45) scale(10.612)">
<stop offset="0.376" stop-color="#AF5700"/>
<stop offset="1" stop-color="#8F4700"/>
</radialGradient>
<clipPath id="clip0_20_13">
<rect width="64" height="64" fill="white" transform="translate(0.745117 45.7452) rotate(-45)"/>
</clipPath>
</defs>
</svg>
