<svg width="24" height="25" viewBox="0 0 24 25" fill="none" xmlns="http://www.w3.org/2000/svg">
<path d="M2 19.424V8.42401H1V6.42401H4V4.42401C4 4.15879 4.10536 3.90444 4.29289 3.7169C4.48043 3.52937 4.73478 3.42401 5 3.42401H19C19.2652 3.42401 19.5196 3.52937 19.7071 3.7169C19.8946 3.90444 20 4.15879 20 4.42401V6.42401H23V8.42401H22V19.424H23V21.424H1V19.424H2ZM13 19.424V12.424H11V19.424H13ZM8 19.424V12.424H6V19.424H8ZM18 19.424V12.424H16V19.424H18ZM6 5.42401V6.42401H18V5.42401H6Z" fill="#667BE6"/>
</svg>
