<svg width="24" height="25" viewBox="0 0 24 25" fill="none" xmlns="http://www.w3.org/2000/svg">
<path fill-rule="evenodd" clip-rule="evenodd" d="M13.3115 3.39468C12.8195 3.25638 12.1652 3.25224 11.5121 3.25224C10.691 3.25224 10.1808 3.46461 9.84932 3.74951C9.51211 4.03854 9.30129 4.45293 9.17904 4.9616C9.05628 5.47389 9.03193 6.04575 9.04229 6.60621C9.04436 6.69789 9.04695 6.78854 9.05006 6.87815H18.7338C19.0198 6.87815 19.2549 7.11125 19.2223 7.3951C18.8898 10.3 15.7829 12.576 12 12.576C8.21662 12.576 5.11025 10.3 4.7777 7.3951C4.74506 7.11125 4.97971 6.87815 5.26616 6.87815H8.01357C8.01046 6.79527 8.00839 6.71136 8.00683 6.62589C7.99544 6.03383 8.01875 5.35889 8.17155 4.72073C8.3254 4.07946 8.61858 3.44027 9.17438 2.9632C9.73484 2.48147 10.5046 2.21626 11.5121 2.21626H11.5494C12.1564 2.21626 12.9479 2.21626 13.5923 2.39756C13.9274 2.49183 14.2719 2.64774 14.535 2.92072C14.8122 3.20665 14.9613 3.5822 14.9613 4.02922C14.9613 4.1666 14.9068 4.29835 14.8096 4.39549C14.7125 4.49263 14.5807 4.54721 14.4434 4.54721C14.306 4.54721 14.1742 4.49263 14.0771 4.39549C13.9799 4.29835 13.9254 4.1666 13.9254 4.02922C13.9254 3.82876 13.8658 3.71843 13.7907 3.64073C13.7021 3.54904 13.5509 3.46202 13.3115 3.39468ZM7.8561 21.8998V22.9358H16.1439V21.8998H7.8561Z" fill="#667BE6"/>
<path fill-rule="evenodd" clip-rule="evenodd" d="M15.1265 10.1726C15.861 10.6781 16.1438 11.4126 16.1438 12.215C16.1438 13.0153 15.8631 13.7601 15.1337 14.2802C14.622 14.6449 13.9268 14.8717 13.0359 14.9665V13.9238C13.7486 13.8358 14.2242 13.656 14.5318 13.4369C14.9354 13.1489 15.1078 12.7516 15.1078 12.2145C15.1078 11.6799 14.9369 11.2997 14.5391 11.0257C14.1009 10.7242 13.3218 10.5041 11.9999 10.5041V9.46809C13.398 9.46809 14.4314 9.69393 15.1265 10.1726ZM10.9639 13.9932V15.0302C10.4625 15.0494 10.0222 15.0965 9.66587 15.2115C9.38667 15.3012 9.20434 15.4203 9.08935 15.5633C8.97902 15.7 8.89199 15.9072 8.89199 16.2517C8.89199 16.5977 8.97902 16.8059 9.08987 16.9437C9.20486 17.0872 9.38771 17.2068 9.66639 17.297C10.2465 17.4845 11.051 17.4917 11.9761 17.4917L11.9859 17.4907C12.0092 17.4891 12.0414 17.4865 12.0807 17.4855C12.1595 17.4819 12.2688 17.4803 12.3993 17.486C12.7325 17.4996 13.0619 17.5624 13.3767 17.6725C13.7435 17.8051 14.1371 18.0341 14.4381 18.4267C14.7427 18.824 14.9198 19.3477 14.9198 20.0107C14.9198 20.6732 14.7427 21.1933 14.4308 21.5818C14.1226 21.9656 13.7212 22.1749 13.3514 22.2867C13.2475 22.318 13.142 22.3434 13.0354 22.3629V21.3C13.0406 21.2984 13.0457 21.2969 13.0509 21.2953C13.2814 21.2254 13.4808 21.1109 13.6228 20.9338C13.7616 20.7607 13.8844 20.4816 13.8844 20.0107C13.8844 19.5404 13.7616 19.2472 13.6155 19.0566C13.4663 18.8618 13.2592 18.7318 13.025 18.6474C12.8078 18.5724 12.5807 18.5298 12.3511 18.521C12.2567 18.5166 12.1621 18.5174 12.0678 18.5236L12.0559 18.5246H12.0548L12.0289 18.5277H11.9445C11.08 18.5277 10.1056 18.5277 9.34782 18.2827C8.9469 18.1532 8.56307 17.9429 8.28129 17.5917C7.99536 17.2353 7.85602 16.7842 7.85602 16.2517C7.85602 15.7197 7.99588 15.2696 8.2818 14.9137C8.56359 14.5641 8.94742 14.3543 9.34834 14.2253C9.828 14.0709 10.3936 14.014 10.9639 13.9932Z" fill="#667BE6"/>
<path fill-rule="evenodd" clip-rule="evenodd" d="M11.5416 18.7919V22.1588H12.5776V18.7919H11.5416ZM11.5416 16.7199H12.5776V10.5802H11.5416V16.7199Z" fill="#667BE6"/>
</svg>
