<svg width="24" height="25" viewBox="0 0 24 25" fill="none" xmlns="http://www.w3.org/2000/svg">
<path d="M20 4.42401H4C2.9 4.42401 2 5.32401 2 6.42401V18.424C2 19.524 2.9 20.424 4 20.424H20C21.1 20.424 22 19.524 22 18.424V6.42401C22 5.32401 21.1 4.42401 20 4.42401ZM19.6 8.67401L13.06 12.764C12.41 13.174 11.59 13.174 10.94 12.764L4.4 8.67401C4.29973 8.61772 4.21192 8.54167 4.14189 8.45047C4.07186 8.35926 4.02106 8.25479 3.99258 8.14338C3.96409 8.03198 3.9585 7.91595 3.97616 7.80232C3.99381 7.68869 4.03434 7.57982 4.09528 7.48231C4.15623 7.3848 4.23632 7.30067 4.33073 7.23501C4.42513 7.16935 4.53187 7.12352 4.6445 7.10031C4.75712 7.0771 4.87328 7.07698 4.98595 7.09996C5.09863 7.12294 5.20546 7.16854 5.3 7.23401L12 11.424L18.7 7.23401C18.7945 7.16854 18.9014 7.12294 19.014 7.09996C19.1267 7.07698 19.2429 7.0771 19.3555 7.10031C19.4681 7.12352 19.5749 7.16935 19.6693 7.23501C19.7637 7.30067 19.8438 7.3848 19.9047 7.48231C19.9657 7.57982 20.0062 7.68869 20.0238 7.80232C20.0415 7.91595 20.0359 8.03198 20.0074 8.14338C19.9789 8.25479 19.9281 8.35926 19.8581 8.45047C19.7881 8.54167 19.7003 8.61772 19.6 8.67401Z" fill="#667BE6"/>
</svg>
