<svg width="20" height="20" viewBox="0 0 20 20" fill="none" xmlns="http://www.w3.org/2000/svg">
<path d="M7.91675 16.4583C8.08251 16.4583 8.24148 16.3925 8.35869 16.2752C8.4759 16.158 8.54175 15.9991 8.54175 15.8333C8.54175 15.6675 8.4759 15.5086 8.35869 15.3914C8.24148 15.2742 8.08251 15.2083 7.91675 15.2083V16.4583ZM9.16675 4.16664V4.79164C9.29028 4.79153 9.41101 4.75482 9.51369 4.68613C9.61637 4.61745 9.69639 4.51988 9.74365 4.40574C9.79091 4.29161 9.80329 4.16603 9.77922 4.04486C9.75515 3.92369 9.69571 3.81238 9.60841 3.72497L9.16675 4.16664ZM7.94175 2.05831C7.82327 1.94791 7.66656 1.8878 7.50465 1.89066C7.34273 1.89352 7.18824 1.95911 7.07373 2.07362C6.95922 2.18813 6.89363 2.34262 6.89077 2.50454C6.88791 2.66646 6.94801 2.82316 7.05841 2.94164L7.94175 2.05831ZM7.91675 15.2083H7.50008V16.4583H7.91675V15.2083ZM7.50008 4.79164H9.16675V3.54164H7.50008V4.79164ZM9.60841 3.72497L7.94175 2.05831L7.05841 2.94164L8.72508 4.60831L9.60841 3.72497ZM1.04175 9.99997C1.04175 11.7128 1.72218 13.3555 2.93335 14.5667C4.14452 15.7779 5.78722 16.4583 7.50008 16.4583V15.2083C6.11875 15.2083 4.79399 14.6596 3.81723 13.6828C2.84048 12.7061 2.29175 11.3813 2.29175 9.99997H1.04175ZM2.29175 9.99997C2.29175 8.61864 2.84048 7.29388 3.81723 6.31713C4.79399 5.34037 6.11875 4.79164 7.50008 4.79164V3.54164C5.78722 3.54164 4.14452 4.22207 2.93335 5.43324C1.72218 6.64441 1.04175 8.28712 1.04175 9.99997H2.29175ZM10.8334 15.8333V15.2083C10.7099 15.2084 10.5892 15.2451 10.4865 15.3138C10.3838 15.3825 10.3038 15.4801 10.2565 15.5942C10.2092 15.7083 10.1969 15.8339 10.2209 15.9551C10.245 16.0763 10.3045 16.1876 10.3917 16.275L10.8334 15.8333ZM12.0584 17.9416C12.1156 18.003 12.1846 18.0523 12.2613 18.0865C12.338 18.1206 12.4207 18.139 12.5046 18.1405C12.5886 18.1419 12.6719 18.1265 12.7497 18.0951C12.8276 18.0636 12.8983 18.0169 12.9576 17.9575C13.017 17.8982 13.0637 17.8275 13.0952 17.7496C13.1266 17.6718 13.1421 17.5885 13.1406 17.5045C13.1391 17.4206 13.1207 17.3379 13.0866 17.2612C13.0524 17.1845 13.0032 17.1155 12.9417 17.0583L12.0584 17.9416ZM12.0834 3.54164C11.9177 3.54164 11.7587 3.60749 11.6415 3.7247C11.5243 3.84191 11.4584 4.00088 11.4584 4.16664C11.4584 4.3324 11.5243 4.49137 11.6415 4.60858C11.7587 4.72579 11.9177 4.79164 12.0834 4.79164V3.54164ZM12.5001 15.2083H10.8334V16.4583H12.5001V15.2083ZM10.3917 16.275L12.0584 17.9416L12.9417 17.0583L11.2751 15.3916L10.3917 16.275ZM12.0834 4.79164H12.5001V3.54164H12.0834V4.79164ZM17.7084 9.99997C17.7084 11.3813 17.1597 12.7061 16.1829 13.6828C15.2062 14.6596 13.8814 15.2083 12.5001 15.2083V16.4583C14.2129 16.4583 15.8556 15.7779 17.0668 14.5667C18.278 13.3555 18.9584 11.7128 18.9584 9.99997H17.7084ZM18.9584 9.99997C18.9584 8.28712 18.278 6.64441 17.0668 5.43324C15.8556 4.22207 14.2129 3.54164 12.5001 3.54164V4.79164C13.8814 4.79164 15.2062 5.34037 16.1829 6.31713C17.1597 7.29388 17.7084 8.61864 17.7084 9.99997H18.9584Z" fill="#5671AE"/>
</svg>
