<svg width="24" height="25" viewBox="0 0 24 25" fill="none" xmlns="http://www.w3.org/2000/svg">
<path d="M12 17.5C11.8694 17.5 11.7412 17.4659 11.6278 17.4011L5.0625 13.6488C5.00545 13.6158 4.94074 13.5985 4.87486 13.5985C4.80899 13.5985 4.74428 13.6159 4.68726 13.6489C4.63024 13.6819 4.58291 13.7293 4.55003 13.7864C4.51716 13.8435 4.4999 13.9082 4.5 13.9741V17.5C4.49989 17.6339 4.53561 17.7653 4.60344 17.8807C4.67128 17.9961 4.76877 18.0912 4.88578 18.1563L11.6358 21.9063C11.7472 21.9681 11.8725 22.0006 12 22.0006C12.1275 22.0006 12.2528 21.9681 12.3642 21.9063L19.1142 18.1563C19.2312 18.0912 19.3287 17.9961 19.3966 17.8807C19.4644 17.7653 19.5001 17.6339 19.5 17.5V13.9741C19.5001 13.9082 19.4828 13.8435 19.45 13.7864C19.4171 13.7293 19.3698 13.6819 19.3127 13.6489C19.2557 13.6159 19.191 13.5985 19.1251 13.5985C19.0593 13.5985 18.9945 13.6158 18.9375 13.6488L12.3722 17.4011C12.2588 17.4659 12.1306 17.5 12 17.5Z" fill="#667BE6"/>
<path d="M23.2461 9.17969V9.17453C23.234 9.05565 23.1937 8.94139 23.1284 8.84126C23.0632 8.74113 22.975 8.65804 22.8711 8.59891L12.3711 2.59891C12.2578 2.53412 12.1295 2.50004 11.999 2.50004C11.8684 2.50004 11.7401 2.53412 11.6268 2.59891L1.12676 8.59891C1.01201 8.66452 0.916631 8.75929 0.850296 8.87363C0.783961 8.98797 0.749023 9.11781 0.749023 9.25C0.749023 9.38219 0.783961 9.51203 0.850296 9.62637C0.916631 9.74071 1.01201 9.83548 1.12676 9.90109L11.6268 15.9011C11.7401 15.9659 11.8684 16 11.999 16C12.1295 16 12.2578 15.9659 12.3711 15.9011L21.6093 10.6225C21.6235 10.6143 21.6397 10.6099 21.6562 10.6099C21.6727 10.61 21.6889 10.6143 21.7032 10.6226C21.7174 10.6309 21.7293 10.6428 21.7375 10.6571C21.7457 10.6714 21.75 10.6876 21.7499 10.7041V17.4789C21.7499 17.8825 22.0602 18.2289 22.4638 18.2491C22.5652 18.2539 22.6665 18.2382 22.7617 18.2028C22.8568 18.1673 22.9438 18.1129 23.0173 18.0429C23.0908 17.9729 23.1493 17.8886 23.1893 17.7953C23.2293 17.702 23.2499 17.6015 23.2499 17.5V9.25C23.2498 9.22652 23.2486 9.20305 23.2461 9.17969Z" fill="#667BE6"/>
</svg>
