<svg width="20" height="20" viewBox="0 0 20 20" fill="none" xmlns="http://www.w3.org/2000/svg">
<rect width="20" height="20" rx="10" fill="#FF0000"/>
<path d="M13.8315 13.0232C13.9388 13.1305 13.999 13.2761 13.999 13.4278C13.999 13.5796 13.9388 13.7251 13.8315 13.8324C13.7241 13.9397 13.5786 14 13.4268 14C13.2751 14 13.1295 13.9397 13.0222 13.8324L10 10.8094L6.97682 13.8315C6.86951 13.9388 6.72397 13.999 6.57221 13.999C6.42045 13.999 6.27491 13.9388 6.1676 13.8315C6.06029 13.7242 6 13.5786 6 13.4269C6 13.2751 6.06029 13.1296 6.1676 13.0223L9.19077 10.0002L6.16855 6.97724C6.06124 6.86994 6.00095 6.7244 6.00095 6.57265C6.00095 6.4209 6.06124 6.27537 6.16855 6.16806C6.27586 6.06076 6.4214 6.00048 6.57316 6.00048C6.72492 6.00048 6.87047 6.06076 6.97778 6.16806L10 9.19106L13.0232 6.16759C13.1305 6.06028 13.276 6 13.4278 6C13.5795 6 13.7251 6.06028 13.8324 6.16759C13.9397 6.27489 14 6.42043 14 6.57218C14 6.72393 13.9397 6.86946 13.8324 6.97677L10.8092 10.0002L13.8315 13.0232Z" fill="white"/>
</svg>
